<mxfile host="app.diagrams.net" modified="2021-05-18T08:27:14.752Z" agent="5.0 (Windows NT 10.0; Win64; x64) AppleWebKit/537.36 (KHTML, like Gecko) Chrome/90.0.4430.212 Safari/537.36" etag="wlOvaxJesE0Tvulz8tTs" version="14.6.11" type="github">
  <diagram id="thtNzENNQOPwe8SZ6Ypd" name="Page-1">
    <mxGraphModel dx="1984" dy="1122" grid="1" gridSize="10" guides="1" tooltips="1" connect="1" arrows="1" fold="1" page="1" pageScale="1" pageWidth="827" pageHeight="1169" math="0" shadow="0">
      <root>
        <mxCell id="0" />
        <mxCell id="1" parent="0" />
        <mxCell id="Qc5rk0ZPjPSG0eP2Zelq-30" value="" style="edgeStyle=orthogonalEdgeStyle;rounded=0;orthogonalLoop=1;jettySize=auto;html=1;" edge="1" parent="1" source="Qc5rk0ZPjPSG0eP2Zelq-21" target="Qc5rk0ZPjPSG0eP2Zelq-29">
          <mxGeometry relative="1" as="geometry" />
        </mxCell>
        <mxCell id="Qc5rk0ZPjPSG0eP2Zelq-36" value="" style="endArrow=classic;html=1;fontFamily=Helvetica;fontSize=11;fontColor=#000000;align=center;strokeColor=#000000;edgeStyle=orthogonalEdgeStyle;" edge="1" parent="1" source="Qc5rk0ZPjPSG0eP2Zelq-21" target="Qc5rk0ZPjPSG0eP2Zelq-60">
          <mxGeometry relative="1" as="geometry">
            <mxPoint x="550" y="340" as="targetPoint" />
          </mxGeometry>
        </mxCell>
        <mxCell id="Qc5rk0ZPjPSG0eP2Zelq-21" value="" style="shape=parallelogram;perimeter=parallelogramPerimeter;whiteSpace=wrap;html=1;fixedSize=1;fillColor=#f8cecc;strokeColor=#b85450;" vertex="1" parent="1">
          <mxGeometry x="62.5" y="330" width="145" height="20" as="geometry" />
        </mxCell>
        <mxCell id="Qc5rk0ZPjPSG0eP2Zelq-25" value="" style="edgeStyle=orthogonalEdgeStyle;rounded=0;orthogonalLoop=1;jettySize=auto;html=1;" edge="1" parent="1" source="Qc5rk0ZPjPSG0eP2Zelq-22" target="Qc5rk0ZPjPSG0eP2Zelq-21">
          <mxGeometry relative="1" as="geometry" />
        </mxCell>
        <mxCell id="Qc5rk0ZPjPSG0eP2Zelq-22" value="" style="shape=parallelogram;perimeter=parallelogramPerimeter;whiteSpace=wrap;html=1;fixedSize=1;fillColor=#d5e8d4;strokeColor=#82b366;" vertex="1" parent="1">
          <mxGeometry x="30" y="290" width="210" height="20" as="geometry" />
        </mxCell>
        <mxCell id="Qc5rk0ZPjPSG0eP2Zelq-24" value="" style="edgeStyle=orthogonalEdgeStyle;rounded=0;orthogonalLoop=1;jettySize=auto;html=1;" edge="1" parent="1" source="Qc5rk0ZPjPSG0eP2Zelq-23" target="Qc5rk0ZPjPSG0eP2Zelq-22">
          <mxGeometry relative="1" as="geometry" />
        </mxCell>
        <mxCell id="Qc5rk0ZPjPSG0eP2Zelq-23" value="" style="shape=parallelogram;perimeter=parallelogramPerimeter;whiteSpace=wrap;html=1;fixedSize=1;fillColor=#fff2cc;strokeColor=#d6b656;" vertex="1" parent="1">
          <mxGeometry x="10" y="250" width="250" height="20" as="geometry" />
        </mxCell>
        <mxCell id="Qc5rk0ZPjPSG0eP2Zelq-26" value="&lt;font size=&quot;1&quot;&gt;&lt;b style=&quot;font-size: 14px&quot;&gt;X2&lt;/b&gt;&lt;/font&gt;" style="text;html=1;strokeColor=none;align=center;verticalAlign=middle;whiteSpace=wrap;rounded=0;perimeterSpacing=5;" vertex="1" parent="1">
          <mxGeometry x="115" y="250" width="40" height="20" as="geometry" />
        </mxCell>
        <mxCell id="Qc5rk0ZPjPSG0eP2Zelq-33" value="" style="edgeStyle=orthogonalEdgeStyle;rounded=0;orthogonalLoop=1;jettySize=auto;html=1;" edge="1" parent="1" source="Qc5rk0ZPjPSG0eP2Zelq-29" target="Qc5rk0ZPjPSG0eP2Zelq-32">
          <mxGeometry relative="1" as="geometry" />
        </mxCell>
        <mxCell id="Qc5rk0ZPjPSG0eP2Zelq-39" value="" style="edgeStyle=orthogonalEdgeStyle;rounded=0;orthogonalLoop=1;jettySize=auto;html=1;" edge="1" parent="1" source="Qc5rk0ZPjPSG0eP2Zelq-29" target="Qc5rk0ZPjPSG0eP2Zelq-38">
          <mxGeometry relative="1" as="geometry" />
        </mxCell>
        <mxCell id="Qc5rk0ZPjPSG0eP2Zelq-29" value="" style="shape=parallelogram;perimeter=parallelogramPerimeter;whiteSpace=wrap;html=1;fixedSize=1;fillColor=#d5e8d4;strokeColor=#82b366;" vertex="1" parent="1">
          <mxGeometry x="30" y="390" width="210" height="20" as="geometry" />
        </mxCell>
        <mxCell id="Qc5rk0ZPjPSG0eP2Zelq-31" value="deconvlution" style="text;html=1;strokeColor=none;fillColor=none;align=center;verticalAlign=middle;whiteSpace=wrap;rounded=0;" vertex="1" parent="1">
          <mxGeometry x="140" y="360" width="80" height="20" as="geometry" />
        </mxCell>
        <mxCell id="Qc5rk0ZPjPSG0eP2Zelq-54" value="" style="edgeStyle=orthogonalEdgeStyle;rounded=0;orthogonalLoop=1;jettySize=auto;html=1;" edge="1" parent="1" source="Qc5rk0ZPjPSG0eP2Zelq-32" target="Qc5rk0ZPjPSG0eP2Zelq-50">
          <mxGeometry relative="1" as="geometry" />
        </mxCell>
        <mxCell id="Qc5rk0ZPjPSG0eP2Zelq-32" value="" style="shape=parallelogram;perimeter=parallelogramPerimeter;whiteSpace=wrap;html=1;fixedSize=1;fillColor=#fff2cc;strokeColor=#d6b656;" vertex="1" parent="1">
          <mxGeometry x="10" y="450" width="250" height="20" as="geometry" />
        </mxCell>
        <mxCell id="Qc5rk0ZPjPSG0eP2Zelq-34" value="deconvlution" style="text;html=1;strokeColor=none;fillColor=none;align=center;verticalAlign=middle;whiteSpace=wrap;rounded=0;" vertex="1" parent="1">
          <mxGeometry x="140" y="420" width="80" height="20" as="geometry" />
        </mxCell>
        <mxCell id="Qc5rk0ZPjPSG0eP2Zelq-44" value="" style="edgeStyle=orthogonalEdgeStyle;rounded=0;orthogonalLoop=1;jettySize=auto;html=1;entryX=0;entryY=0.25;entryDx=0;entryDy=0;entryPerimeter=0;" edge="1" parent="1" source="Qc5rk0ZPjPSG0eP2Zelq-35" target="Qc5rk0ZPjPSG0eP2Zelq-40">
          <mxGeometry relative="1" as="geometry" />
        </mxCell>
        <mxCell id="Qc5rk0ZPjPSG0eP2Zelq-35" value="Upsample" style="rounded=1;whiteSpace=wrap;html=1;fillColor=#f5f5f5;strokeColor=#666666;fontColor=#333333;" vertex="1" parent="1">
          <mxGeometry x="350" y="365" width="96" height="30" as="geometry" />
        </mxCell>
        <mxCell id="Qc5rk0ZPjPSG0eP2Zelq-43" value="" style="edgeStyle=orthogonalEdgeStyle;rounded=0;orthogonalLoop=1;jettySize=auto;html=1;" edge="1" parent="1" source="Qc5rk0ZPjPSG0eP2Zelq-38" target="Qc5rk0ZPjPSG0eP2Zelq-40">
          <mxGeometry relative="1" as="geometry" />
        </mxCell>
        <mxCell id="Qc5rk0ZPjPSG0eP2Zelq-38" value="&lt;font style=&quot;font-size: 12px&quot;&gt;Concat&lt;/font&gt;" style="shape=or;whiteSpace=wrap;html=1;fillColor=#a0522d;strokeColor=#6D1F00;fontColor=#ffffff;" vertex="1" parent="1">
          <mxGeometry x="280" y="360" width="40" height="80" as="geometry" />
        </mxCell>
        <mxCell id="Qc5rk0ZPjPSG0eP2Zelq-40" value="&lt;font style=&quot;font-size: 12px&quot;&gt;Concat&lt;/font&gt;" style="shape=or;whiteSpace=wrap;html=1;fillColor=#a0522d;strokeColor=#6D1F00;fontColor=#ffffff;" vertex="1" parent="1">
          <mxGeometry x="470" y="360" width="40" height="80" as="geometry" />
        </mxCell>
        <mxCell id="Qc5rk0ZPjPSG0eP2Zelq-42" value="" style="endArrow=classic;html=1;entryX=0.5;entryY=0;entryDx=0;entryDy=0;" edge="1" parent="1" target="Qc5rk0ZPjPSG0eP2Zelq-35">
          <mxGeometry width="50" height="50" relative="1" as="geometry">
            <mxPoint x="398" y="340" as="sourcePoint" />
            <mxPoint x="445" y="340" as="targetPoint" />
          </mxGeometry>
        </mxCell>
        <mxCell id="Qc5rk0ZPjPSG0eP2Zelq-45" value="" style="endArrow=classic;html=1;fontFamily=Helvetica;fontSize=11;fontColor=#000000;align=center;strokeColor=#000000;edgeStyle=orthogonalEdgeStyle;exitX=1;exitY=0.5;exitDx=0;exitDy=0;exitPerimeter=0;entryX=0;entryY=0.5;entryDx=0;entryDy=0;" edge="1" parent="1" source="Qc5rk0ZPjPSG0eP2Zelq-40" target="Qc5rk0ZPjPSG0eP2Zelq-61">
          <mxGeometry relative="1" as="geometry">
            <mxPoint x="560" y="409" as="sourcePoint" />
            <mxPoint x="920" y="400" as="targetPoint" />
            <Array as="points" />
          </mxGeometry>
        </mxCell>
        <mxCell id="Qc5rk0ZPjPSG0eP2Zelq-58" value="" style="edgeStyle=orthogonalEdgeStyle;rounded=0;orthogonalLoop=1;jettySize=auto;html=1;entryX=0;entryY=0.25;entryDx=0;entryDy=0;entryPerimeter=0;" edge="1" parent="1" source="Qc5rk0ZPjPSG0eP2Zelq-47" target="Qc5rk0ZPjPSG0eP2Zelq-56">
          <mxGeometry relative="1" as="geometry" />
        </mxCell>
        <mxCell id="Qc5rk0ZPjPSG0eP2Zelq-47" value="Upsample" style="rounded=1;whiteSpace=wrap;html=1;fillColor=#f5f5f5;strokeColor=#666666;fontColor=#333333;" vertex="1" parent="1">
          <mxGeometry x="514" y="425" width="96" height="30" as="geometry" />
        </mxCell>
        <mxCell id="Qc5rk0ZPjPSG0eP2Zelq-57" value="" style="edgeStyle=orthogonalEdgeStyle;rounded=0;orthogonalLoop=1;jettySize=auto;html=1;entryX=0;entryY=0.5;entryDx=0;entryDy=0;entryPerimeter=0;" edge="1" parent="1" source="Qc5rk0ZPjPSG0eP2Zelq-50" target="Qc5rk0ZPjPSG0eP2Zelq-56">
          <mxGeometry relative="1" as="geometry" />
        </mxCell>
        <mxCell id="Qc5rk0ZPjPSG0eP2Zelq-50" value="&lt;font style=&quot;font-size: 12px&quot;&gt;Concat&lt;/font&gt;" style="shape=or;whiteSpace=wrap;html=1;fillColor=#a0522d;strokeColor=#6D1F00;fontColor=#ffffff;" vertex="1" parent="1">
          <mxGeometry x="364" y="420" width="40" height="80" as="geometry" />
        </mxCell>
        <mxCell id="Qc5rk0ZPjPSG0eP2Zelq-51" value="" style="endArrow=classic;html=1;exitX=1;exitY=0.5;exitDx=0;exitDy=0;entryX=0;entryY=0.25;entryDx=0;entryDy=0;entryPerimeter=0;" edge="1" parent="1" source="Qc5rk0ZPjPSG0eP2Zelq-22" target="Qc5rk0ZPjPSG0eP2Zelq-38">
          <mxGeometry width="50" height="50" relative="1" as="geometry">
            <mxPoint x="320" y="260" as="sourcePoint" />
            <mxPoint x="370" y="210" as="targetPoint" />
            <Array as="points">
              <mxPoint x="250" y="300" />
              <mxPoint x="250" y="330" />
              <mxPoint x="260" y="340" />
              <mxPoint x="250" y="350" />
              <mxPoint x="250" y="380" />
            </Array>
          </mxGeometry>
        </mxCell>
        <mxCell id="Qc5rk0ZPjPSG0eP2Zelq-52" value="" style="endArrow=classic;html=1;exitX=1;exitY=0.5;exitDx=0;exitDy=0;entryX=0;entryY=0.25;entryDx=0;entryDy=0;entryPerimeter=0;" edge="1" parent="1" source="Qc5rk0ZPjPSG0eP2Zelq-23" target="Qc5rk0ZPjPSG0eP2Zelq-50">
          <mxGeometry width="50" height="50" relative="1" as="geometry">
            <mxPoint x="290" y="270" as="sourcePoint" />
            <mxPoint x="340" y="220" as="targetPoint" />
            <Array as="points">
              <mxPoint x="340" y="260" />
              <mxPoint x="340" y="330" />
              <mxPoint x="350" y="340" />
              <mxPoint x="340" y="350" />
              <mxPoint x="340" y="440" />
            </Array>
          </mxGeometry>
        </mxCell>
        <mxCell id="Qc5rk0ZPjPSG0eP2Zelq-55" value="" style="endArrow=classic;html=1;entryX=0.5;entryY=0;entryDx=0;entryDy=0;" edge="1" parent="1" target="Qc5rk0ZPjPSG0eP2Zelq-47">
          <mxGeometry width="50" height="50" relative="1" as="geometry">
            <mxPoint x="562" y="400" as="sourcePoint" />
            <mxPoint x="630" y="420" as="targetPoint" />
          </mxGeometry>
        </mxCell>
        <mxCell id="Qc5rk0ZPjPSG0eP2Zelq-64" value="" style="edgeStyle=orthogonalEdgeStyle;rounded=0;orthogonalLoop=1;jettySize=auto;html=1;" edge="1" parent="1" source="Qc5rk0ZPjPSG0eP2Zelq-56" target="Qc5rk0ZPjPSG0eP2Zelq-62">
          <mxGeometry relative="1" as="geometry" />
        </mxCell>
        <mxCell id="Qc5rk0ZPjPSG0eP2Zelq-56" value="&lt;font style=&quot;font-size: 12px&quot;&gt;Concat&lt;/font&gt;" style="shape=or;whiteSpace=wrap;html=1;fillColor=#a0522d;strokeColor=#6D1F00;fontColor=#ffffff;" vertex="1" parent="1">
          <mxGeometry x="640" y="420" width="40" height="80" as="geometry" />
        </mxCell>
        <mxCell id="Qc5rk0ZPjPSG0eP2Zelq-60" value="&lt;font style=&quot;font-size: 14px&quot;&gt;detection_0&lt;/font&gt;" style="rounded=1;whiteSpace=wrap;html=1;strokeColor=#b85450;fillColor=#f8cecc;" vertex="1" parent="1">
          <mxGeometry x="710" y="320" width="90" height="40" as="geometry" />
        </mxCell>
        <mxCell id="Qc5rk0ZPjPSG0eP2Zelq-61" value="&lt;font style=&quot;font-size: 14px&quot;&gt;detection_1&lt;/font&gt;" style="rounded=1;whiteSpace=wrap;html=1;strokeColor=#82b366;fillColor=#d5e8d4;" vertex="1" parent="1">
          <mxGeometry x="710" y="380" width="90" height="40" as="geometry" />
        </mxCell>
        <mxCell id="Qc5rk0ZPjPSG0eP2Zelq-62" value="&lt;font style=&quot;font-size: 14px&quot;&gt;detection_2&lt;/font&gt;" style="rounded=1;whiteSpace=wrap;html=1;strokeColor=#d6b656;fillColor=#fff2cc;" vertex="1" parent="1">
          <mxGeometry x="710" y="440" width="90" height="40" as="geometry" />
        </mxCell>
        <mxCell id="Qc5rk0ZPjPSG0eP2Zelq-65" value="&lt;font size=&quot;1&quot;&gt;&lt;b style=&quot;font-size: 14px&quot;&gt;X1&lt;/b&gt;&lt;/font&gt;" style="text;html=1;strokeColor=none;align=center;verticalAlign=middle;whiteSpace=wrap;rounded=0;perimeterSpacing=5;" vertex="1" parent="1">
          <mxGeometry x="115" y="289" width="40" height="20" as="geometry" />
        </mxCell>
        <mxCell id="Qc5rk0ZPjPSG0eP2Zelq-66" value="&lt;font size=&quot;1&quot;&gt;&lt;b style=&quot;font-size: 14px&quot;&gt;X0&lt;/b&gt;&lt;/font&gt;" style="text;html=1;strokeColor=none;align=center;verticalAlign=middle;whiteSpace=wrap;rounded=0;perimeterSpacing=5;" vertex="1" parent="1">
          <mxGeometry x="115" y="330" width="40" height="20" as="geometry" />
        </mxCell>
      </root>
    </mxGraphModel>
  </diagram>
</mxfile>
